<?xml version="1.0" encoding="UTF-8" standalone="no"?>
<svg
   xmlns:dc="http://purl.org/dc/elements/1.1/"
   xmlns:cc="http://creativecommons.org/ns#"
   xmlns:rdf="http://www.w3.org/1999/02/22-rdf-syntax-ns#"
   xmlns:svg="http://www.w3.org/2000/svg"
   xmlns="http://www.w3.org/2000/svg"
   id="SVGRoot"
   version="1.1"
   viewBox="0 0 256 256"
   height="256px"
   width="256px">
  <defs
     id="defs27" />
  <metadata
     id="metadata30">
    <rdf:RDF>
      <cc:Work
         rdf:about="">
        <dc:format>image/svg+xml</dc:format>
        <dc:type
           rdf:resource="http://purl.org/dc/dcmitype/StillImage" />
        <dc:title></dc:title>
      </cc:Work>
    </rdf:RDF>
  </metadata>
  <g
     id="layer1">
    <path
       id="path4616"
       d="m 125,3.6463544 -2.78134,1.6195377 -2.78337,1.6195487 -37.40525,21.7773962 c -5.657323,2.643801 -11.05665,5.787663 -16.1349,9.3943 l -42.976752,25.021192 0.48805,79.799211 c -0.284977,3.04861 -0.445345,6.11633 -0.448408,9.19649 v 0.002 0.005 0.002 c -9.3e-5,56.03021 46.36821,101.67375 103.28942,101.67362 56.92118,1.3e-4 103.2895,-45.64303 103.28937,-101.67402 v -0.0304 -0.0593 -0.0301 c -0.0376,-3.4169 -0.26938,-6.81647 -0.65344,-10.19094 L 228.38507,60.982264 185.2641,37.067903 c -5.48804,-3.777825 -11.33411,-7.020236 -17.4603,-9.683624 z"
       style="color:#000000;font-style:normal;font-variant:normal;font-weight:normal;font-stretch:normal;font-size:medium;line-height:normal;font-family:sans-serif;font-variant-ligatures:normal;font-variant-position:normal;font-variant-caps:normal;font-variant-numeric:normal;font-variant-alternates:normal;font-feature-settings:normal;text-indent:0;text-align:start;text-decoration:none;text-decoration-line:none;text-decoration-style:solid;text-decoration-color:#000000;letter-spacing:normal;word-spacing:normal;text-transform:none;writing-mode:lr-tb;direction:ltr;text-orientation:mixed;dominant-baseline:auto;baseline-shift:baseline;text-anchor:start;white-space:normal;shape-padding:0;clip-rule:nonzero;display:inline;overflow:visible;visibility:visible;opacity:1;isolation:auto;mix-blend-mode:normal;color-interpolation:sRGB;color-interpolation-filters:linearRGB;solid-color:#000000;solid-opacity:1;vector-effect:none;fill:#5567ae;fill-opacity:1;fill-rule:nonzero;stroke:#000000;stroke-width:1.66011298;stroke-linecap:butt;stroke-linejoin:miter;stroke-miterlimit:4;stroke-dasharray:none;stroke-dashoffset:0;stroke-opacity:1;color-rendering:auto;image-rendering:auto;shape-rendering:auto;text-rendering:auto;enable-background:accumulate" />
    <path
       id="path4607"
       d="m 125.06767,10.009475 -2.7827,1.619536 -37.55153,21.862852 c -5.56289,2.576449 -10.864953,5.663728 -15.838259,9.221377 l -40.358798,23.49719 0.469591,76.83129 c -0.291137,3.00415 -0.446771,6.01976 -0.449764,9.03768 v 0.002 0.002 c -9.4e-5,53.04423 43.803962,96.16341 97.69124,96.16327 53.88725,1.3e-4 97.69133,-43.11889 97.6912,-96.1634 v -0.0304 -0.0295 c -0.0369,-3.34442 -0.26161,-6.68366 -0.6521,-10.00594 L 222.80671,64.21448 182.35155,41.778368 c -5.37217,-3.726778 -11.11126,-6.909891 -17.13287,-9.501965 z"
       style="color:#000000;font-style:normal;font-variant:normal;font-weight:normal;font-stretch:normal;font-size:medium;line-height:normal;font-family:sans-serif;font-variant-ligatures:normal;font-variant-position:normal;font-variant-caps:normal;font-variant-numeric:normal;font-variant-alternates:normal;font-feature-settings:normal;text-indent:0;text-align:start;text-decoration:none;text-decoration-line:none;text-decoration-style:solid;text-decoration-color:#000000;letter-spacing:normal;word-spacing:normal;text-transform:none;writing-mode:lr-tb;direction:ltr;text-orientation:mixed;dominant-baseline:auto;baseline-shift:baseline;text-anchor:start;white-space:normal;shape-padding:0;clip-rule:nonzero;display:inline;overflow:visible;visibility:visible;opacity:1;isolation:auto;mix-blend-mode:normal;color-interpolation:sRGB;color-interpolation-filters:linearRGB;solid-color:#000000;solid-opacity:1;vector-effect:none;fill:#ffffff;fill-opacity:1;fill-rule:nonzero;stroke:none;stroke-width:11.10897827;stroke-linecap:butt;stroke-linejoin:miter;stroke-miterlimit:4;stroke-dasharray:none;stroke-dashoffset:0;stroke-opacity:1;color-rendering:auto;image-rendering:auto;shape-rendering:auto;text-rendering:auto;enable-background:accumulate" />
    <path
       id="path4562"
       d="m 125.13534,16.372582 -37.70467,21.951645 -7e-4,6.9e-4 c -5.4661,2.506713 -10.668875,5.535833 -15.533391,9.043747 l -37.742213,21.973901 0.451132,73.867375 v 9.9e-4 c -0.297625,2.9488 -0.448174,5.91021 -0.451132,8.87351 -8.1e-5,50.06621 41.231426,90.65286 92.093084,90.65275 50.86163,1.1e-4 92.09314,-40.58659 92.09302,-90.65279 -0.0362,-3.28145 -0.25346,-6.55858 -0.65071,-9.81685 L 217.22837,67.446594 179.43283,46.485345 c -5.25076,-3.673612 -10.8786,-6.79478 -16.7911,-9.312217 l -0.001,-6.91e-4 z"
       style="display:inline;opacity:1;fill:#5567ae;fill-opacity:0.99658706;stroke-width:0.34722388" />
    <path
       id="path931"
       d="m 74.900958,198.64632 c -2.031682,-0.71252 -4.990339,-2.57163 -6.574759,-4.13125 l -2.880776,-2.83572 h 7.281137 c 4.004619,0 7.28114,0.37253 7.28114,0.82792 0,2.29723 3.21565,1.5182 7.50295,-1.8177 3.96637,-3.08622 4.74096,-4.18524 4.74096,-6.72678 0,-5.59711 -5.34215,-7.42324 -7.93785,-2.71341 l -1.40512,2.54952 -0.0376,-3.08444 c -0.0514,-4.21093 4.26257,-8.49214 8.60185,-8.53634 2.99235,-0.0305 1.82948,-1.29415 -25.828115,-28.06687 l -28.961571,-28.0349 v -4.84552 c 0,-5.28682 0.384941,-5.62855 3.47736,-3.08711 1.401991,1.15219 1.895722,2.33248 1.538371,3.67761 -0.365827,1.37704 -0.09282,1.98085 0.895611,1.98085 0.782004,0 1.676107,0.65222 1.98686,1.44942 0.310765,0.79719 0.99187,1.18975 1.513541,0.87239 0.521659,-0.31734 0.948475,0.0733 0.948475,0.86835 0,0.79496 0.590399,1.44539 1.311999,1.44539 0.721588,0 1.566264,0.65223 1.877017,1.4494 0.310777,0.79715 0.99187,1.18974 1.513529,0.8724 0.521672,-0.31737 0.948499,0.11795 0.948499,0.96752 0,0.94379 0.513406,1.35063 1.319948,1.04597 0.79747,-0.30125 1.517995,0.24687 1.820284,1.38475 0.275192,1.03585 0.908272,1.63519 1.406878,1.33185 0.498594,-0.30332 1.15986,0.0982 1.469491,0.89261 0.30962,0.79422 0.989789,1.18442 1.511448,0.86705 0.521672,-0.31737 0.948487,0.0732 0.948487,0.86833 0,0.79496 0.590399,1.44539 1.311999,1.44539 0.7216,0 1.566252,0.65223 1.877029,1.44942 0.310765,0.79718 0.991846,1.18977 1.513518,0.8724 0.521671,-0.31736 0.948486,0.0734 0.948486,0.86834 0,0.79496 0.590399,1.44538 1.311999,1.44538 0.7216,0 1.579229,0.6855 1.905846,1.52339 0.326629,0.83783 0.840281,1.28075 1.14146,0.98429 0.301167,-0.29645 1.505322,0.47822 2.675891,1.72154 1.170557,1.24327 2.564119,2.26055 3.096814,2.26055 0.532684,0 1.235766,0.68551 1.562395,1.52335 0.326601,0.83786 0.841991,1.27911 1.145271,0.98056 0.30329,-0.29853 1.77671,0.77772 3.27427,2.3917 1.49756,1.61399 2.72283,2.63292 2.72283,2.26435 0,-0.36858 0.78397,0.06 1.74215,0.95223 4.71979,4.39556 6.09098,5.12992 7.71461,4.13183 1.15518,-0.71015 1.92124,-0.68034 2.73958,0.1069 1.32249,1.27178 1.34889,1.44983 -3.41174,-23.0124 -5.58875,-28.71756 -6.17686,-32.941972 -5.58783,-40.13793 0.52031,-6.356555 3.70103,-15.952373 5.28772,-15.952373 0.39477,0 2.46365,2.84432 4.59748,6.320727 4.94831,8.061692 7.02977,17.220535 9.09851,40.034906 0.85536,9.43333 1.69937,17.30066 1.87554,17.48292 0.17609,0.18231 0.98648,-1.92421 1.80066,-4.68117 1.32665,-4.49209 1.33349,-5.48923 0.0659,-9.60251 -2.4656,-8.00103 -2.02619,-10.12652 2.7642,-13.37085 5.33749,-3.61484 5.86888,-6.13935 3.83268,-18.207596 -0.85083,-5.042874 -1.41668,-12.506452 -1.25745,-16.585752 l 0.28956,-7.416924 4.14389,12.412199 c 4.76853,14.283198 3.91466,14.445655 10.41887,-1.982151 2.17028,-5.481573 4.17513,-9.966491 4.45522,-9.966491 1.08102,0 -0.95277,12.719394 -3.92272,24.532679 l -3.10783,12.361786 2.69933,10.89268 c 1.48464,5.99093 2.90005,11.09016 3.14535,11.33167 0.24544,0.24145 6.82322,-5.53867 14.61752,-12.84473 12.72377,-11.9268 14.17146,-13.59889 14.17146,-16.368373 0,-2.80785 -0.17058,-2.994662 -1.90315,-2.082004 -2.22628,1.172834 -3.74791,0.506577 -3.74791,-1.641073 0,-1.183306 0.25123,-1.274148 1.1302,-0.408838 1.69208,1.665607 2.29364,1.385829 3.57672,-1.663335 1.71406,-4.073481 -0.57531,-6.860255 -8.76288,-10.666794 -3.79352,-1.76368 -7.70454,-4.353648 -8.88699,-5.885152 -2.0471,-2.65142 -2.05991,-2.798393 -0.41831,-4.793998 l 1.69352,-2.058735 4.18565,2.080114 c 2.30212,1.14407 9.10115,5.951232 15.10894,10.682621 7.88077,6.206429 11.29109,8.373268 12.24388,7.779445 4.22598,-2.633734 12.54426,0.492902 15.77912,5.93099 1.51542,2.547555 1.49046,2.655442 -1.03723,4.481122 -1.95747,1.4138 -2.59008,2.65159 -2.59008,5.06801 0,5.58234 -2.30092,8.89641 -13.92554,20.05757 -9.54611,9.16556 -10.97822,10.89353 -9.02824,10.89353 1.27462,0 9.98919,-1.07703 19.36575,-2.39341 12.74188,-1.78882 18.1436,-2.18787 21.38472,-1.5797 l 4.33653,0.81364 -6.12195,2.02809 c -3.36707,1.1154 -13.90847,3.26779 -23.42527,4.78302 -9.51683,1.51525 -17.45064,2.89999 -17.6307,3.07725 -0.17994,0.17711 -0.44629,1.74426 -0.59163,3.48229 -0.3468,4.14711 2.01481,4.70296 5.99047,1.40996 3.58841,-2.9722 4.72992,-2.6901 5.75102,1.42148 1.4844,5.97713 1.49979,5.98899 4.32037,3.32899 1.43756,-1.35574 3.11425,-2.46498 3.72595,-2.46498 0.61171,0 1.59874,1.90203 2.19342,4.22676 l 1.08121,4.22681 2.51581,-2.37256 c 3.5103,-3.31051 4.52574,-2.99555 5.96073,1.84883 l 1.25046,4.2214 2.54539,-1.97093 c 2.91907,-2.2602 3.28986,-1.45204 0.79737,1.73801 -2.43948,3.1222 -5.0387,2.28506 -6.26515,-2.01786 -1.00385,-3.52205 -1.00845,-3.52473 -2.76411,-1.61507 -0.96719,1.05209 -2.74746,1.9128 -3.95603,1.9128 -1.83396,0 -2.29675,-0.61101 -2.79746,-3.6932 l -0.59996,-3.69317 -2.82619,2.34091 c -1.55439,1.28744 -3.30261,2.18484 -3.88494,1.99415 -0.58224,-0.19071 -1.71079,-2.08211 -2.50782,-4.20316 -1.42992,-3.80542 -1.4784,-3.83623 -3.66404,-2.32926 -1.21826,0.83992 -3.40147,1.77542 -4.85163,2.0788 -2.62028,0.54823 -2.561,0.64369 9.54875,15.38539 11.80296,14.3682 14.40213,19.00573 10.65203,19.00573 -1.87257,0 -3.72862,-1.94189 -21.06712,-22.04183 l -13.65666,-15.83164 -7.53476,7.17709 c -22.77635,21.69524 -29.65231,26.98796 -35.06094,26.98796 -2.52577,0 -4.6559,1.27367 -10.8822,6.50682 -11.7935,9.91235 -16.0294,11.4873 -23.679595,8.80418 z m 57.396762,-71.56005 c -0.92911,-4.99934 -3.19608,-11.84342 -4.50779,-13.60921 -1.00617,-1.35454 -1.95165,-1.55411 -4.83748,-1.02119 -4.42761,0.81762 -5.23063,2.48074 -8.13064,16.83919 -2.02137,10.0081 -2.03851,10.51979 -0.46218,13.78975 l 1.6371,3.39594 8.42374,-8.22709 c 7.81175,-7.62942 8.38402,-8.4407 7.87725,-11.16739 z"
       style="display:inline;opacity:1;fill:#ffffff;fill-opacity:1;stroke:#000000;stroke-width:1.49839938;stroke-miterlimit:4;stroke-dasharray:none;stroke-opacity:1" />
  </g>
</svg>
